<svg width="10" height="10" viewBox="0 0 10 10" fill="none" xmlns="http://www.w3.org/2000/svg">
<path d="M9.72498 0.2825C9.6556 0.212972 9.57318 0.157812 9.48245 0.120175C9.39172 0.0825394 9.29446 0.0631667 9.19623 0.0631667C9.09801 0.0631667 9.00075 0.0825394 8.91002 0.120175C8.81929 0.157812 8.73687 0.212972 8.66748 0.2825L4.99998 3.9425L1.33248 0.275C1.26305 0.205563 1.18062 0.150483 1.08989 0.112905C0.999169 0.0753258 0.901933 0.0559845 0.803735 0.0559845C0.705537 0.0559845 0.6083 0.0753258 0.517577 0.112905C0.426854 0.150483 0.344421 0.205563 0.274984 0.275C0.205548 0.344436 0.150468 0.426869 0.112889 0.517592C0.0753106 0.608315 0.0559692 0.705552 0.0559692 0.80375C0.0559692 0.901948 0.0753106 0.999184 0.112889 1.08991C0.150468 1.18063 0.205548 1.26306 0.274984 1.3325L3.94248 5L0.274984 8.6675C0.205548 8.73694 0.150468 8.81937 0.112889 8.91009C0.0753106 9.00082 0.0559692 9.09805 0.0559692 9.19625C0.0559692 9.29445 0.0753106 9.39168 0.112889 9.48241C0.150468 9.57313 0.205548 9.65556 0.274984 9.725C0.344421 9.79444 0.426854 9.84952 0.517577 9.88709C0.6083 9.92467 0.705537 9.94401 0.803735 9.94401C0.901933 9.94401 0.999169 9.92467 1.08989 9.88709C1.18062 9.84952 1.26305 9.79444 1.33248 9.725L4.99998 6.0575L8.66748 9.725C8.73692 9.79444 8.81935 9.84952 8.91008 9.88709C9.0008 9.92467 9.09804 9.94401 9.19623 9.94401C9.29443 9.94401 9.39167 9.92467 9.48239 9.88709C9.57312 9.84952 9.65555 9.79444 9.72498 9.725C9.79442 9.65556 9.8495 9.57313 9.88708 9.48241C9.92466 9.39168 9.944 9.29445 9.944 9.19625C9.944 9.09805 9.92466 9.00082 9.88708 8.91009C9.8495 8.81937 9.79442 8.73694 9.72498 8.6675L6.05748 5L9.72498 1.3325C10.01 1.0475 10.01 0.5675 9.72498 0.2825Z" fill="#333333"/>
</svg>
