<svg width="10" height="10" viewBox="0 0 10 10" fill="none" xmlns="http://www.w3.org/2000/svg">
<path d="M5 0.416672C4.66848 0.416672 4.35054 0.548368 4.11612 0.782788C3.8817 1.01721 3.75 1.33515 3.75 1.66667V5.00001C3.75 5.33153 3.8817 5.64947 4.11612 5.88389C4.35054 6.11831 4.66848 6.25001 5 6.25001C5.33152 6.25001 5.64946 6.11831 5.88388 5.88389C6.1183 5.64947 6.25 5.33153 6.25 5.00001V1.66667C6.25 1.33515 6.1183 1.01721 5.88388 0.782788C5.64946 0.548368 5.33152 0.416672 5 0.416672Z" stroke="white" stroke-width="0.833333" stroke-linecap="round" stroke-linejoin="round"/>
<path d="M7.91668 4.16667V5.00001C7.91668 5.77355 7.60939 6.51542 7.06241 7.0624C6.51542 7.60938 5.77356 7.91667 5.00001 7.91667C4.22646 7.91667 3.4846 7.60938 2.93762 7.0624C2.39063 6.51542 2.08334 5.77355 2.08334 5.00001V4.16667" stroke="white" stroke-width="0.833333" stroke-linecap="round" stroke-linejoin="round"/>
<path d="M5 7.91667V9.58334" stroke="white" stroke-width="0.833333" stroke-linecap="round" stroke-linejoin="round"/>
<path d="M3.33334 9.58333H6.66668" stroke="white" stroke-width="0.833333" stroke-linecap="round" stroke-linejoin="round"/>
</svg>
